<svg xmlns="http://www.w3.org/2000/svg" width="64" height="64" viewBox="0 0 64 64">
    <g fill="none" fill-rule="evenodd">
        <g>
            <circle cx="32" cy="32" r="32" fill="#FFAE2C" fill-rule="nonzero"/>
            <path stroke="#FFF" stroke-linecap="round" stroke-linejoin="round" stroke-width="2" d="M45.934 39.6L32 31.91V10c-12.15 0-22 9.85-22 22s9.85 22 22 22c7.945 0 14.907-4.212 18.774-10.525"/>
        </g>
        <path fill="#FFF" fill-rule="nonzero" d="M42.5 13.813a1.5 1.5 0 1 1 1.483-2.608 1.5 1.5 0 0 1-1.483 2.608zm7.687 7.687a1.5 1.5 0 1 1 2.588-1.517 1.5 1.5 0 0 1-2.588 1.517zM53 32a1.5 1.5 0 1 1 3 0 1.5 1.5 0 0 1-3 0z"/>
    </g>
</svg>
