<?xml version="1.0" encoding="utf-8"?>
<!-- Generator: Adobe Illustrator 21.1.0, SVG Export Plug-In . SVG Version: 6.00 Build 0)  -->
<svg version="1.1" id="Layer_1" xmlns="http://www.w3.org/2000/svg" xmlns:xlink="http://www.w3.org/1999/xlink" x="0px" y="0px"
	 viewBox="0 0 261.8 44.2" style="enable-background:new 0 0 261.8 44.2;" xml:space="preserve">
<style type="text/css">
	.st0{fill:#FFFFFF;}
</style>
<path id="Union_6" class="st0" d="M23.6,31.4L10.7,44.2v-7.7l12.9-12.9l13,12.9v7.7L23.6,31.4z M75.5,42.5l2.3-6.1l-6.2-16.7
	l5.3-0.1l3.6,10.6L84,19.6h5.3l-8.4,22.9L75.5,42.5z M132.4,36.1c-3.7-1.4-5.9-5.2-5.4-9.1c0.3-4.2,3.8-7.5,8-7.6
	c7.1-0.1,8.2,4.6,8.5,5.9c0.3,1.2,0.3,2.4,0.1,3.6h-11.7c0.2,1.8,1.7,3.2,3.5,3.2c1.6,0.1,3-0.8,3.8-2.1l3.9,2.8
	c-1.6,2.5-4.4,3.9-7.3,4C134.6,36.7,133.5,36.5,132.4,36.1L132.4,36.1z M132,25.9l6.8,0.1c0,0-0.2-2.6-3.3-2.6
	C132.2,23.4,132,25.9,132,25.9z M247.9,33.8l1.4-1.9c1.5,1.6,3.6,2.5,5.7,2.5c2.7,0,4.1-1.3,4.1-3c0-4.2-10.8-1.6-10.8-8.1
	c0-2.7,2.3-5,6.5-5c2.4-0.1,4.7,0.8,6.4,2.5l-1.3,1.9c-1.3-1.5-3.2-2.3-5.2-2.2c-2.4,0-3.9,1.2-3.9,2.7c0,3.8,10.8,1.3,10.8,8.1
	c0,2.9-2.3,5.3-6.8,5.3C252.3,36.7,249.8,35.7,247.9,33.8L247.9,33.8z M219.2,27.4c0-5,3.6-9.1,8.6-9.1c5.3,0,8.4,4.1,8.4,9.3v0.7
	H222c0.1,3.4,2.9,6.1,6.2,6c0,0,0,0,0,0c2,0,3.9-0.8,5.4-2.2l1.3,1.8c-1.8,1.8-4.3,2.8-6.9,2.7C222.9,36.6,219.2,32.8,219.2,27.4
	L219.2,27.4z M222,26.3h11.4c0.1-3.1-2.4-5.7-5.5-5.8c-0.1,0-0.2,0-0.3,0C224,20.5,222.2,23.7,222,26.3L222,26.3z M193.2,32.5V21.1
	h-2.5v0c-0.1,0-0.1,0-0.2,0h-0.2v0c-0.2,0-0.5,0-0.7,0c-1.9,0.2-3.6,1.2-4.7,2.8v12.3h-2.7V18.7h2.7v2.8c1.3-1.9,3.5-3.1,5.8-3.2
	v0.4h2.5V14h2.7v4.8h3.5v2.4h-3.5v10.8c0,1.3,0.6,2.2,1.8,2.2c0.7,0,1.3-0.2,1.8-0.7l0.8,2c-0.9,0.8-2.1,1.2-3.2,1.1
	C194.5,36.6,193.2,35.1,193.2,32.5L193.2,32.5z M163.7,30.8c0-3.9,3.1-5.7,6.1-5.7c2.2-0.1,4.3,0.8,5.8,2.4v-3.1
	c0-2.3-1.9-3.7-4.4-3.7c-2,0-4,0.9-5.3,2.4l-1.3-1.9c1.8-1.9,4.3-3,6.9-2.9c3.7,0,6.7,1.7,6.7,5.9v12h-2.7v-2
	c-1.5,1.6-3.6,2.5-5.8,2.4C166.8,36.6,163.7,34.6,163.7,30.8z M166.5,30.8c0,2.2,1.8,3.8,4.3,3.8c1.8,0.1,3.6-0.7,4.8-2.2v-3.3
	c-1.2-1.4-2.9-2.2-4.8-2.2C168.2,27,166.5,28.6,166.5,30.8L166.5,30.8z M121.3,36.4l-6.2-8.3v8.3H110L110,12.6h5.1l0.1,14.7l5.4-7.7
	h5.8l-5.6,8l6.6,8.8H121.3z M102.5,36.4l-6.2-8.3v8.3h-5.1V12.6h5.1v14.7l5.4-7.7h5.8l-5.6,8l6.6,8.8H102.5z M58.3,36.4V12.6h5.4
	l0.1,18.5h7.2l2,5.3H58.3z M239,36.1V18.7h2.7v2.8c1.3-1.9,3.5-3.1,5.8-3.2v2.8c-0.4-0.1-0.7-0.1-1.1-0.1c-1.9,0.2-3.6,1.2-4.7,2.8
	v12.3L239,36.1z M213.5,36.1V24.7c0-3.1-1.5-4-3.9-4c-2,0.1-3.9,1.1-5.1,2.7v12.7h-2.7V18.7h2.7v2.5c1.6-1.8,3.8-2.9,6.2-3
	c3.6,0,5.5,1.8,5.5,5.6v12.2L213.5,36.1z M145.8,36.1v-24h9.6c4.8,0,7.5,3.3,7.5,7.2s-2.8,7.2-7.5,7.2h-6.7v9.5H145.8z M148.8,23.9
	h6.3c2.5,0.2,4.6-1.7,4.8-4.1c0-0.1,0-0.3,0-0.4c0.1-2.5-1.9-4.5-4.3-4.6c-0.1,0-0.3,0-0.4,0h-6.3V23.9z M23.7,23.6V0l5.4,5.5
	l0.1,12.8h18.2l-5.4,5.5L23.7,23.6z M5.4,23.6L0,18.2l18.2-0.1l5.4,5.5H5.4z"/>
</svg>
