<svg xmlns="http://www.w3.org/2000/svg" viewBox="626 409.882 261.8 44.236">
  <defs>
    <style>
      .cls-1 {
        fill: #333;
      }
    </style>
  </defs>
  <path id="Union_6" data-name="Union 6" class="cls-1" d="M-245.381-346.64l-12.875,12.876v-7.663l12.875-12.875,12.955,12.875v7.663Zm51.9,11.162,2.291-6.082-6.161-16.746,5.292-.079,3.555,10.585,3.476-10.585h5.292l-8.373,22.908Zm56.874-6.4a8.614,8.614,0,0,1-5.371-9.085A8.263,8.263,0,0,1-134-358.545c7.109-.078,8.215,4.582,8.531,5.925a7.284,7.284,0,0,1,.079,3.555h-11.691a3.511,3.511,0,0,0,3.476,3.159,4.186,4.186,0,0,0,3.792-2.132l3.949,2.765a9.015,9.015,0,0,1-7.335,4A10.534,10.534,0,0,1-136.609-341.877ZM-137-352.067l6.793.079s-.158-2.606-3.317-2.606C-136.767-354.595-137-352.067-137-352.067Zm115.943,7.881,1.4-1.944a7.878,7.878,0,0,0,5.724,2.484c2.664,0,4.1-1.26,4.1-2.988,0-4.212-10.764-1.62-10.764-8.064,0-2.7,2.34-5,6.48-5a8.8,8.8,0,0,1,6.444,2.52l-1.26,1.872a6.774,6.774,0,0,0-5.184-2.2c-2.376,0-3.852,1.188-3.852,2.736,0,3.816,10.764,1.3,10.764,8.064,0,2.916-2.34,5.256-6.84,5.256A9.249,9.249,0,0,1-21.06-344.186Zm-28.764-6.408c0-5.04,3.6-9.108,8.568-9.108,5.256,0,8.352,4.1,8.352,9.324v.684H-46.98a6.127,6.127,0,0,0,6.264,6.012,7.6,7.6,0,0,0,5.364-2.2l1.3,1.764a9.446,9.446,0,0,1-6.912,2.664C-46.116-341.45-49.824-345.158-49.824-350.594Zm2.844-1.08h11.412a5.636,5.636,0,0,0-5.724-5.8C-45-357.47-46.836-354.338-46.98-351.674Zm-28.836,6.156v-11.376H-78.3v.036c-.059-.013-.119-.025-.179-.036H-78.7v-.033a5.391,5.391,0,0,0-.684-.039,6.361,6.361,0,0,0-4.716,2.772v12.312h-2.7V-359.27h2.7v2.808a7.391,7.391,0,0,1,5.8-3.168v.36h2.484v-4.752h2.7v4.752h3.528v2.376h-3.528v10.8c0,1.3.576,2.232,1.764,2.232a2.605,2.605,0,0,0,1.836-.72l.792,2.016a4.413,4.413,0,0,1-3.24,1.116C-74.52-341.45-75.816-342.926-75.816-345.518ZM-105.3-347.21c0-3.888,3.132-5.724,6.084-5.724a7.27,7.27,0,0,1,5.76,2.376v-3.132c0-2.34-1.872-3.672-4.392-3.672a6.907,6.907,0,0,0-5.328,2.412l-1.26-1.872a9.1,9.1,0,0,1,6.948-2.88c3.672,0,6.732,1.656,6.732,5.868v11.952h-2.7v-1.98a7.521,7.521,0,0,1-5.76,2.412C-102.168-341.45-105.3-343.43-105.3-347.21Zm2.772.036c0,2.2,1.764,3.78,4.284,3.78a5.823,5.823,0,0,0,4.788-2.16v-3.276a5.823,5.823,0,0,0-4.788-2.16C-100.764-350.99-102.528-349.406-102.528-347.174Zm-45.219,5.534-6.161-8.294v8.294h-5.055l-.079-23.777h5.055l.079,14.693,5.45-7.663h5.766l-5.608,7.979,6.556,8.768Zm-18.8,0-6.241-8.294v8.294h-5.055v-23.777h5.055v14.693l5.45-7.663h5.846l-5.608,7.979,6.556,8.768Zm-44.157,0v-23.777h5.371l.079,18.484h7.188l1.975,5.293Zm180.716-.242V-359.27h2.7v2.808a7.391,7.391,0,0,1,5.8-3.168v2.772a4.76,4.76,0,0,0-1.08-.108,6.361,6.361,0,0,0-4.716,2.772v12.312Zm-25.488,0v-11.376c0-3.06-1.548-4.032-3.888-4.032a6.713,6.713,0,0,0-5.148,2.7v12.708h-2.7V-359.27h2.7v2.52A8.625,8.625,0,0,1-58.32-359.7c3.636,0,5.544,1.836,5.544,5.616v12.2Zm-67.716,0v-24.012h9.648c4.824,0,7.524,3.312,7.524,7.236s-2.772,7.236-7.524,7.236h-6.66v9.54Zm2.988-12.2h6.3a4.463,4.463,0,0,0,4.788-4.572,4.463,4.463,0,0,0-4.788-4.572h-6.3Zm-125.1-.3V-378l5.371,5.45.079,12.8h18.168l-5.45,5.45Zm-18.327,0L-269-359.753l18.168-.079,5.45,5.45Z" transform="translate(895 787.882)"/>
</svg>
