<svg id="Layer_1" data-name="Layer 1" xmlns="http://www.w3.org/2000/svg" viewBox="0 0 88.11 88.11"><defs><style>.cls-1{fill:#fea616;}.cls-2{fill:#d88517;}.cls-3{fill:#fff;}.cls-4{fill:#ffc20e;}</style></defs><title>solarcoin_logo</title><circle class="cls-1" cx="44.05" cy="44.05" r="26.37"/><path class="cls-2" d="M28.5,32.39a.73.73,0,0,0,1.06,0,.67.67,0,0,0-.08-.94c-.33-.27-.64-.06-1.29.3a1.44,1.44,0,1,1-2-2.12,1.47,1.47,0,0,1,2.12-.3l-.63.77a.61.61,0,0,0-.87.09.58.58,0,0,0,.05.83c.28.24.53.09,1.33-.34s1.29-.48,1.83,0a1.49,1.49,0,0,1,.15,2.27,1.54,1.54,0,0,1-2.35.28Z"/><path class="cls-2" d="M29.59,29.56A2.62,2.62,0,1,1,33.2,30a2.56,2.56,0,0,1-3.62-.42Zm.77-.65a1.62,1.62,0,1,0,.24-2.34,1.64,1.64,0,0,0-.24,2.34Z"/><path class="cls-2" d="M33.37,23.81l.91-.43L36,27.08l1-.45.38.8-1.9.88Z"/><path class="cls-2" d="M38.57,27l-1.06.27.73-5.33.86-.22L42.23,26l-1.06.27-.59-.86-1.91.48Zm.35-4-.19,2.13,1.39-.35Z"/><path class="cls-2" d="M42.12,21.13l1.51,0a2.54,2.54,0,0,1,1.5.28,1.75,1.75,0,0,1,.42,2.27,1.3,1.3,0,0,1-.81.56L45.9,26l-1,0-1.4-2.28h.2a1.55,1.55,0,0,0,.89-.21.93.93,0,0,0,.3-.74.86.86,0,0,0-.39-.71,1.33,1.33,0,0,0-.71-.14l-.59,0,.11,4.1-1,0Z"/><path class="cls-2" d="M51.06,25.35a2.5,2.5,0,0,1-2.75,1.22,2.59,2.59,0,1,1,1.06-5.06,2.54,2.54,0,0,1,2,2.26l-1-.22a1.55,1.55,0,0,0-1.18-1.18,1.71,1.71,0,0,0-.7,3.33A1.57,1.57,0,0,0,50,25.13Z"/><path class="cls-2" d="M51.78,24.78a2.62,2.62,0,1,1,1.12,3.46,2.56,2.56,0,0,1-1.12-3.46Zm.91.43a1.62,1.62,0,1,0,2.22-.76,1.64,1.64,0,0,0-2.22.76Z"/><path class="cls-2" d="M58.46,25.76l.79.62L56.17,30.3l-.79-.62Z"/><path class="cls-2" d="M59.89,31.86l2.54-2.35.65.71L59.4,33.58l-.6-.66,1-4-2.53,2.34-.65-.71,3.68-3.36.6.66Z"/><path class="cls-3" d="M28.35,31.76a.73.73,0,0,0,1.06,0,.67.67,0,0,0-.08-.94c-.33-.27-.64-.06-1.29.3a1.44,1.44,0,1,1-2-2.12,1.47,1.47,0,0,1,2.12-.3l-.63.77a.61.61,0,0,0-.87.09.58.58,0,0,0,.05.83c.28.24.53.09,1.33-.34s1.29-.48,1.83,0a1.49,1.49,0,0,1,.15,2.27,1.54,1.54,0,0,1-2.35.28Z"/><path class="cls-3" d="M29.43,28.93a2.62,2.62,0,1,1,3.62.42,2.56,2.56,0,0,1-3.62-.42Zm.77-.65A1.62,1.62,0,1,0,30.44,26a1.64,1.64,0,0,0-.24,2.34Z"/><path class="cls-3" d="M33.22,23.19l.91-.43,1.76,3.7,1-.45.38.8-1.9.88Z"/><path class="cls-3" d="M38.41,26.33l-1.06.27.73-5.33.86-.22,3.14,4.35L41,25.67l-.59-.86-1.91.48Zm.35-4-.19,2.13L40,24.1Z"/><path class="cls-3" d="M42,20.51l1.51,0a2.54,2.54,0,0,1,1.5.28A1.75,1.75,0,0,1,45.39,23a1.3,1.3,0,0,1-.81.56l1.16,1.82-1,0-1.4-2.28h.2a1.55,1.55,0,0,0,.89-.21.93.93,0,0,0,.3-.74.86.86,0,0,0-.39-.71,1.33,1.33,0,0,0-.71-.14l-.59,0,.11,4.1-1,0Z"/><path class="cls-3" d="M50.9,24.73a2.5,2.5,0,0,1-2.75,1.22,2.59,2.59,0,1,1,1.06-5.06,2.54,2.54,0,0,1,2,2.26l-1-.22A1.55,1.55,0,0,0,49,21.75a1.71,1.71,0,0,0-.7,3.33,1.57,1.57,0,0,0,1.54-.58Z"/><path class="cls-3" d="M51.62,24.15a2.62,2.62,0,1,1,1.12,3.46,2.56,2.56,0,0,1-1.12-3.46Zm.91.43a1.62,1.62,0,1,0,2.22-.76,1.64,1.64,0,0,0-2.22.76Z"/><path class="cls-3" d="M58.3,25.14l.79.62L56,29.67l-.79-.62Z"/><path class="cls-3" d="M59.73,31.23l2.54-2.35.65.71L59.24,33l-.6-.66,1-4-2.53,2.34-.65-.71,3.68-3.36.6.66Z"/><path class="cls-2" d="M22.95,44.85a2.37,2.37,0,1,1-2,2.59,2.32,2.32,0,0,1,2-2.59Zm.13.9A1.47,1.47,0,1,0,24.77,47a1.49,1.49,0,0,0-1.69-1.3Z"/><path class="cls-2" d="M23.8,53.19l3-1L27,53l-4.27,1.48-.26-.76,2.27-3-2.95,1-.29-.82,4.27-1.48.27.77Z"/><path class="cls-2" d="M27.26,53.31l1.25,2.2-.7.4L27,54.5l-.89.51.79,1.39-.7.4-.79-1.38-.95.54.8,1.41-.7.4-1.25-2.2Z"/><path class="cls-2" d="M26.38,60.29,29.51,57l.89.85L29,61l3.07-1.55.89.85-3.13,3.26L29.21,63l2.53-2.6-3.42,1.74-.43-.41,1.59-3.49L27,60.87Z"/><path class="cls-2" d="M33.3,60.45l2.15,1.34-.42.68-1.38-.86-.54.87,1.35.85L34,64l-1.35-.85-.58.93,1.38.86-.42.68L30.9,64.28Z"/><path class="cls-2" d="M38.29,64.47a1.5,1.5,0,0,0-.18-.47,1.37,1.37,0,0,0-.7-.59,1.55,1.55,0,0,0-1.09,2.89,1.49,1.49,0,0,0,.94.06,1.2,1.2,0,0,0,.68-.48l-1.58-.6.26-.69,2.56,1a2.68,2.68,0,0,1-.59,1,2.4,2.4,0,0,1-2.54.49,2.35,2.35,0,1,1,3.22-2.22Z"/><path class="cls-2" d="M39.68,68.05l-1-.15,2.48-4.2.79.12,1.1,4.73-1-.15-.2-.92-1.76-.26Zm1.7-3.23-.91,1.72,1.29.19Z"/><path class="cls-2" d="M43,64.13l.93-.07,1,3.21.54-3.32.69-.05,1,3.21.52-3.33.92-.07-.88,4.6-.82.06-1-3.14-.55,3.26-.84.06Z"/><path class="cls-2" d="M50.22,67.8l-.94.29.41-4.86.76-.24,3.05,3.78-1,.3L52,66.33l-1.7.53Zm.13-3.65-.07,1.94,1.24-.39Z"/><path class="cls-2" d="M52.72,63l-.88.43-.35-.72,2.57-1.26.35.72-.87.43,1.64,3.34-.82.4Z"/><path class="cls-2" d="M55.08,61.65l-.81.55-.45-.66,2.37-1.6.45.66-.81.54,2.08,3.08-.75.51Z"/><path class="cls-2" d="M60.83,61.9l-3.38-3,.6-.68,1.36,1.2,1.16-1.3-1.36-1.2.6-.68,3.38,3-.6.68-1.42-1.27L60,60l1.42,1.27Z"/><path class="cls-2" d="M61.95,57.29a2.37,2.37,0,1,1,3.16-1,2.32,2.32,0,0,1-3.16,1Zm.41-.82a1.46,1.46,0,1,0-.65-2,1.49,1.49,0,0,0,.65,2Z"/><path class="cls-2" d="M62.45,51l2.67.78a1.37,1.37,0,0,0,.69.07.67.67,0,0,0,.5-.49.65.65,0,0,0-.14-.67,1.33,1.33,0,0,0-.64-.32l-2.67-.78.25-.87,2.67.78a1.69,1.69,0,0,1,1.2.85,1.63,1.63,0,0,1,.09,1.23,1.68,1.68,0,0,1-.75,1,1.65,1.65,0,0,1-1.47.07l-2.67-.78Z"/><path class="cls-2" d="M63.18,48.35,63.31,47a2.3,2.3,0,0,1,.42-1.31,1.59,1.59,0,0,1,2.09-.12,1.18,1.18,0,0,1,.41.79L68,45.51l-.09.95-2.21,1,0-.18a1.41,1.41,0,0,0-.08-.82A.85.85,0,0,0,65,46.1a.78.78,0,0,0-.68.27,1.2,1.2,0,0,0-.2.62l-.05.53,3.7.37-.09.91Z"/><path class="cls-3" d="M22.63,44.22a2.37,2.37,0,1,1-2,2.59,2.32,2.32,0,0,1,2-2.59Zm.13.9a1.47,1.47,0,1,0,1.69,1.3,1.49,1.49,0,0,0-1.69-1.3Z"/><path class="cls-3" d="M23.48,52.56l3-1,.29.82-4.27,1.48-.26-.76,2.27-3-2.95,1-.29-.82,4.27-1.48.27.77Z"/><path class="cls-3" d="M26.95,52.68l1.25,2.2-.7.4-.8-1.41-.89.51.79,1.39-.7.4-.79-1.38-.95.54.8,1.41-.7.4L23,54.92Z"/><path class="cls-3" d="M26.06,59.66l3.13-3.26.89.85-1.41,3.14,3.07-1.55.89.85L29.5,63l-.61-.58,2.53-2.6L28,61.52l-.43-.41,1.59-3.49-2.49,2.63Z"/><path class="cls-3" d="M33,59.83l2.15,1.34-.42.68L33.33,61l-.54.87,1.35.85-.42.68-1.35-.85-.58.93,1.38.86-.42.68-2.15-1.34Z"/><path class="cls-3" d="M38,63.84a1.5,1.5,0,0,0-.18-.47,1.37,1.37,0,0,0-.7-.59A1.55,1.55,0,0,0,36,65.68a1.49,1.49,0,0,0,.94.06,1.2,1.2,0,0,0,.68-.48L36,64.67l.26-.69,2.56,1a2.68,2.68,0,0,1-.59,1,2.4,2.4,0,0,1-2.54.49,2.35,2.35,0,1,1,3.22-2.22Z"/><path class="cls-3" d="M39.36,67.43l-1-.15,2.48-4.2.79.12,1.1,4.73-1-.15-.2-.92-1.76-.26Zm1.7-3.23-.91,1.72,1.29.19Z"/><path class="cls-3" d="M42.7,63.5l.93-.07,1,3.21.54-3.32.69-.05,1,3.21.52-3.33.92-.07-.88,4.6-.82.06-1-3.14-.55,3.26-.84.06Z"/><path class="cls-3" d="M49.91,67.17l-.94.29.41-4.86.76-.24,3.05,3.78-1,.3-.58-.75-1.7.53ZM50,63.52,50,65.47l1.24-.39Z"/><path class="cls-3" d="M52.41,62.33l-.88.43L51.18,62l2.57-1.26.35.72-.87.43,1.64,3.34-.82.4Z"/><path class="cls-3" d="M54.77,61l-.81.55-.45-.66,2.37-1.6.45.66-.81.54L57.6,63.6l-.75.51Z"/><path class="cls-3" d="M60.51,61.28l-3.38-3,.6-.68,1.36,1.2,1.16-1.3-1.36-1.2.6-.68,3.38,3-.6.68L60.85,58l-1.16,1.3,1.42,1.27Z"/><path class="cls-3" d="M61.63,56.66a2.37,2.37,0,1,1,3.16-1,2.32,2.32,0,0,1-3.16,1Zm.41-.82a1.46,1.46,0,1,0-.65-2,1.49,1.49,0,0,0,.65,2Z"/><path class="cls-3" d="M62.14,50.38l2.67.78a1.37,1.37,0,0,0,.69.07.67.67,0,0,0,.5-.49.65.65,0,0,0-.14-.67,1.33,1.33,0,0,0-.64-.32L62.55,49l.25-.87,2.67.78a1.69,1.69,0,0,1,1.2.85A1.63,1.63,0,0,1,66.77,51,1.68,1.68,0,0,1,66,52a1.65,1.65,0,0,1-1.47.07l-2.67-.78Z"/><path class="cls-3" d="M62.86,47.73,63,46.37a2.3,2.3,0,0,1,.42-1.31,1.59,1.59,0,0,1,2.09-.12,1.18,1.18,0,0,1,.41.79l1.76-.84-.09.95-2.21,1,0-.18a1.41,1.41,0,0,0-.08-.82.85.85,0,0,0-.63-.35.78.78,0,0,0-.68.27,1.2,1.2,0,0,0-.2.62l-.05.53,3.7.37-.09.91Z"/><path class="cls-3" d="M45.47,42.1c-3.89-2.19-4.64-3.46-4.64-5.22s1.82-3.46,4.18-3.46a5.43,5.43,0,0,1,3.89,2l2.16-2.45a7.49,7.49,0,0,0-5.65-2.57c-4.87,0-7.87,3.52-7.87,6.55S38.6,42,42.67,44.35s5.8,3.84,5.8,5.83a4.19,4.19,0,0,1-4.24,4.33c-2.86,0-4.7-3-4.7-3s-.89,1-2.54,2.62a8.88,8.88,0,0,0,7.24,3.58,7.64,7.64,0,0,0,7.53-7.41C51.75,45.94,49.36,44.3,45.47,42.1Z"/><path class="cls-3" d="M44.05,51.6a7.82,7.82,0,0,0,3.66-.9,4,4,0,0,0,0-.52,13.51,13.51,0,0,0-.51-1.64,5.72,5.72,0,0,1-8.64-6.31l0-.08a7,7,0,0,1-1.35-2.28h0A7.86,7.86,0,0,0,44.05,51.6Z"/><polygon class="cls-3" points="41.72 36.24 41.72 36.23 41.72 36.23 41.72 36.24"/><path class="cls-3" d="M51.55,46.1v0a7.86,7.86,0,0,0-9.84-9.84,1.94,1.94,0,0,0-.12.65A2.72,2.72,0,0,0,42,38.41h0a5.72,5.72,0,0,1,7.79,5.33q0,.14,0,.28A13.46,13.46,0,0,1,51.55,46.1Z"/><path class="cls-3" d="M44.05,60.19A16.13,16.13,0,1,1,60.19,44.05,16.15,16.15,0,0,1,44.05,60.19Zm0-31.8A15.66,15.66,0,1,0,59.72,44.05,15.68,15.68,0,0,0,44.05,28.39Z"/><g id="_Group_" data-name="&lt;Group&gt;"><path class="cls-1" d="M44.05,0A44.05,44.05,0,1,1,0,44.05,44.05,44.05,0,0,1,44.05,0ZM86.54,44.05A42.48,42.48,0,1,0,44.05,86.54,42.48,42.48,0,0,0,86.54,44.05Z"/><path class="cls-4" d="M44.05,1.57A42.48,42.48,0,1,1,1.57,44.05,42.48,42.48,0,0,1,44.05,1.57ZM84.24,44.05A40.18,40.18,0,1,0,44.05,84.24,40.18,40.18,0,0,0,84.24,44.05Z"/></g><path class="cls-4" d="M61.32,20.61C63.17,16.11,59.54,8,55.61,4.78c.47,1.59,1.54,7.1-1.48,11.89C54.13,16.67,59.3,18.73,61.32,20.61Z"/><path class="cls-4" d="M70.63,32.31c3.85-3,4.74-11.77,3-16.57-.39,1.62-2.22,6.92-7.23,9.56C66.38,25.31,69.82,29.67,70.63,32.31Z"/><path class="cls-4" d="M72.85,47.1c4.82-.65,10-7.82,10.85-12.86-1.14,1.21-5.38,4.89-11,4.67C72.66,38.91,73.47,44.41,72.85,47.1Z"/><path class="cls-4" d="M67.37,61c4.5,1.85,12.56-1.78,15.83-5.71-1.59.47-7.1,1.54-11.89-1.48C71.31,53.83,69.25,59,67.37,61Z"/><path class="cls-4" d="M55.67,70.33c3,3.85,11.77,4.74,16.57,3-1.62-.39-6.92-2.22-9.56-7.23C62.67,66.07,58.31,69.52,55.67,70.33Z"/><path class="cls-4" d="M40.88,72.55c.65,4.82,7.82,10,12.86,10.85-1.21-1.14-4.89-5.38-4.67-11C49.07,72.36,43.57,73.17,40.88,72.55Z"/><path class="cls-4" d="M27,67.07c-1.85,4.5,1.78,12.56,5.71,15.83-.47-1.59-1.54-7.1,1.48-11.89C34.15,71,29,69,27,67.07Z"/><path class="cls-4" d="M17.65,55.37c-3.85,3-4.74,11.77-3,16.57.39-1.62,2.22-6.92,7.23-9.56C21.91,62.37,18.46,58,17.65,55.37Z"/><path class="cls-4" d="M15.43,40.58c-4.82.65-10,7.82-10.85,12.86,1.14-1.21,5.38-4.89,11-4.67C15.62,48.77,14.81,43.27,15.43,40.58Z"/><path class="cls-4" d="M20.91,26.66c-4.5-1.85-12.56,1.78-15.83,5.71,1.59-.47,7.1-1.54,11.89,1.48C17,33.85,19,28.68,20.91,26.66Z"/><path class="cls-4" d="M32.61,17.35c-3-3.85-11.77-4.74-16.57-3,1.62.39,6.92,2.22,9.56,7.23C25.61,21.61,30,18.16,32.61,17.35Z"/><path class="cls-4" d="M47.4,15.13c-.65-4.82-7.82-10-12.86-10.85,1.21,1.14,4.89,5.38,4.67,11C39.21,15.32,44.71,14.51,47.4,15.13Z"/></svg>