<svg xmlns="http://www.w3.org/2000/svg" viewBox="1654 2467.831 131.657 86.139">
  <defs>
    <style>
      .cls-1 {
        fill: #d4ca99;
      }

      .cls-2 {
        fill: #da3711;
      }
    </style>
  </defs>
  <g id="Zeptagram_Logo" transform="translate(1654 2467.831)">
    <g id="Group_879" data-name="Group 879" transform="translate(0 30.826)">
      <path id="Path_2051" data-name="Path 2051" d="M0,36.588,8.787,26.361H.72V24.2H12.244v2.017L3.457,36.444h9.075V38.6H0Z" transform="translate(0 -20.167)"/>
      <path id="Path_2052" data-name="Path 2052" d="M19.951,24.664a6.009,6.009,0,0,1,2.3,1.873,6.974,6.974,0,0,1,1.008,2.593,15.771,15.771,0,0,1,.288,3.169h-10.8a6.146,6.146,0,0,0,1.008,3.457,3.72,3.72,0,0,0,3.025,1.3,4.235,4.235,0,0,0,3.169-1.3,3.286,3.286,0,0,0,.864-1.729h2.449a4.1,4.1,0,0,1-.576,1.729,15.088,15.088,0,0,1-1.152,1.584,6.268,6.268,0,0,1-2.737,1.44,8.858,8.858,0,0,1-2.017.144,5.877,5.877,0,0,1-4.609-1.873A7.443,7.443,0,0,1,10.3,31.578a8.038,8.038,0,0,1,1.873-5.618A6.538,6.538,0,0,1,17.214,23.8,14.514,14.514,0,0,1,19.951,24.664Zm.864,5.618a5.476,5.476,0,0,0-.72-2.449A3.772,3.772,0,0,0,16.638,26.1a4.022,4.022,0,0,0-2.881,1.152A4.649,4.649,0,0,0,12.6,30.282h8.211Z" transform="translate(4.537 -20.343)"/>
      <path id="Path_2053" data-name="Path 2053" d="M21.5,24.332h2.449V26.2a3.732,3.732,0,0,1,1.584-1.44,5.325,5.325,0,0,1,3.025-.864,5.478,5.478,0,0,1,4.321,1.873,7.655,7.655,0,0,1,1.729,5.33c0,3.169-.864,5.33-2.593,6.626a5.641,5.641,0,0,1-3.745,1.3,6.09,6.09,0,0,1-2.881-.72,4.528,4.528,0,0,1-1.44-1.44V44.21H21.5V24.332Zm9.363,11.235a6.867,6.867,0,0,0,1.152-4.177,5.713,5.713,0,0,0-.576-2.881,3.6,3.6,0,0,0-3.6-2.3,3.719,3.719,0,0,0-3.6,2.449,10.745,10.745,0,0,0-.576,3.457,6.066,6.066,0,0,0,.576,2.881,3.679,3.679,0,0,0,3.6,2.161A4.792,4.792,0,0,0,30.863,35.568Z" transform="translate(9.47 -20.299)"/>
      <path id="Path_2054" data-name="Path 2054" d="M33.429,21.4h2.593v4.033h2.3V27.45h-2.3v9.219a.964.964,0,0,0,.576,1.008c.144.144.576.144,1.008.144h.864v1.873a1.827,1.827,0,0,1-.864.144H36.6c-1.152,0-2.017-.288-2.3-.864a4.91,4.91,0,0,1-.576-2.3V27.162H31.7V25.145h2.017V21.4Z" transform="translate(13.962 -21.4)"/>
      <path id="Path_2055" data-name="Path 2055" d="M46.155,29.906a1.141,1.141,0,0,0,1.152-.72c.144-.144.144-.576.144-.864a1.742,1.742,0,0,0-.864-1.729,4.331,4.331,0,0,0-2.593-.576,3.207,3.207,0,0,0-2.737,1.008,4.011,4.011,0,0,0-.576,1.729h-2.3A4.116,4.116,0,0,1,40.1,25.008,7.307,7.307,0,0,1,44.138,24a8.008,8.008,0,0,1,4.321,1.008,3,3,0,0,1,1.584,3.025v8.211c0,.288,0,.432.144.576a.846.846,0,0,0,.72.288h.864v1.729a2.534,2.534,0,0,1-.864.144h-.864a2.14,2.14,0,0,1-1.873-.864,6.7,6.7,0,0,1-.432-1.3,14.162,14.162,0,0,1-2.161,1.729,5.737,5.737,0,0,1-3.169.72A4.861,4.861,0,0,1,39.1,38.116a4.146,4.146,0,0,1-1.3-3.025,3.72,3.72,0,0,1,1.3-3.025,6.2,6.2,0,0,1,3.313-1.3Zm-5.33,6.482a2.9,2.9,0,0,0,1.873.576,5.65,5.65,0,0,0,2.593-.576,3.234,3.234,0,0,0,2.017-3.169V31.2a9.924,9.924,0,0,1-1.152.432c-.432.144-1.008.144-1.44.288l-1.44.144a5.647,5.647,0,0,0-2.017.576A2.3,2.3,0,0,0,40.1,34.659,2.385,2.385,0,0,0,40.825,36.388Z" transform="translate(16.649 -20.255)"/>
      <path id="Path_2056" data-name="Path 2056" d="M57.663,24.764a5.854,5.854,0,0,1,1.44,1.3V24.188h2.3V37.152a8.818,8.818,0,0,1-.864,4.321c-1.008,1.873-3.025,2.881-5.906,2.881A7.307,7.307,0,0,1,50.6,43.346a3.888,3.888,0,0,1-1.873-3.169h2.593a2.3,2.3,0,0,0,.72,1.44,3.521,3.521,0,0,0,2.593.864c1.873,0,3.169-.72,3.745-2.017a9.63,9.63,0,0,0,.432-4.033,4.47,4.47,0,0,1-1.729,1.584,7.033,7.033,0,0,1-2.737.576,6.276,6.276,0,0,1-4.177-1.584A7.35,7.35,0,0,1,48.3,31.534c0-2.449.576-4.321,1.873-5.618A5.835,5.835,0,0,1,54.494,23.9,9.2,9.2,0,0,1,57.663,24.764Zm.288,2.593a3.626,3.626,0,0,0-2.881-1.3,3.719,3.719,0,0,0-3.6,2.449,10.526,10.526,0,0,0-.576,3.313A5.794,5.794,0,0,0,51.9,35.568a3.345,3.345,0,0,0,2.737,1.3,3.785,3.785,0,0,0,3.745-2.3,6.681,6.681,0,0,0,.576-3.025A5.62,5.62,0,0,0,57.951,27.357Z" transform="translate(21.274 -20.299)"/>
      <path id="Path_2057" data-name="Path 2057" d="M60,24.188h2.3v2.449a6.335,6.335,0,0,1,1.44-1.729A3.471,3.471,0,0,1,66.338,23.9H67.2v2.593h-.864a3.7,3.7,0,0,0-3.889,3.889v8.211H60Z" transform="translate(26.427 -20.299)"/>
      <path id="Path_2058" data-name="Path 2058" d="M74.655,29.906a1.141,1.141,0,0,0,1.152-.72c.144-.144.144-.576.144-.864a1.742,1.742,0,0,0-.864-1.729,4.331,4.331,0,0,0-2.593-.576,3.207,3.207,0,0,0-2.737,1.008,4.011,4.011,0,0,0-.576,1.729h-2.3A4.116,4.116,0,0,1,68.6,25.008,7.307,7.307,0,0,1,72.638,24a8.008,8.008,0,0,1,4.321,1.008,3,3,0,0,1,1.584,3.025v8.211c0,.288,0,.432.144.576a.846.846,0,0,0,.72.288h.864v1.729a2.534,2.534,0,0,1-.864.144h-.864a2.14,2.14,0,0,1-1.873-.864,6.7,6.7,0,0,1-.432-1.3,14.162,14.162,0,0,1-2.161,1.729,5.737,5.737,0,0,1-3.169.72A4.861,4.861,0,0,1,67.6,38.116a4.146,4.146,0,0,1-1.3-3.025,3.72,3.72,0,0,1,1.3-3.025,6.2,6.2,0,0,1,3.313-1.3Zm-5.33,6.482a2.9,2.9,0,0,0,1.873.576,5.65,5.65,0,0,0,2.593-.576,3.234,3.234,0,0,0,2.017-3.169V31.2a9.924,9.924,0,0,1-1.152.432c-.432.144-1.008.144-1.44.288l-1.44.144a5.647,5.647,0,0,0-2.017.576A2.3,2.3,0,0,0,68.6,34.659,2.385,2.385,0,0,0,69.325,36.388Z" transform="translate(29.202 -20.255)"/>
      <path id="Path_2059" data-name="Path 2059" d="M77.5,24.232h2.449v2.017a16.282,16.282,0,0,1,1.584-1.584A4.743,4.743,0,0,1,84.27,23.8a4.571,4.571,0,0,1,2.881.864A6.284,6.284,0,0,1,88.3,26.1a5.865,5.865,0,0,1,2.017-1.729,4.933,4.933,0,0,1,2.593-.576c2.017,0,3.313.72,4.033,2.017a5.957,5.957,0,0,1,.576,3.025v9.507H94.929V28.409a2.612,2.612,0,0,0-.72-2.017,3.6,3.6,0,0,0-1.873-.576,3.471,3.471,0,0,0-2.593,1.008,4,4,0,0,0-1.008,3.169v8.355H86.143V28.986a7.017,7.017,0,0,0-.288-2.161,2.274,2.274,0,0,0-2.161-1.008A3.471,3.471,0,0,0,81.1,26.825a5.44,5.44,0,0,0-1.152,3.889v7.634H77.5Z" transform="translate(34.135 -20.343)"/>
    </g>
    <path id="Path_2060" data-name="Path 2060" class="cls-1" d="M.9,26.792H128.668L63.992,0,65,15.7H12.424Z" transform="translate(0.396)"/>
    <path id="Path_2061" data-name="Path 2061" class="cls-2" d="M128.668,41.2H.9L65.432,67.992l-.864-15.7H117Z" transform="translate(0.396 18.146)"/>
  </g>
</svg>
