<svg xmlns="http://www.w3.org/2000/svg" xmlns:xlink="http://www.w3.org/1999/xlink" viewBox="1686.932 4897.696 109.337 88.601">
  <defs>
    <style>
      .cls-1, .cls-2, .cls-4 {
        fill: none;
        stroke-linecap: round;
        stroke-linejoin: round;
        stroke-miterlimit: 10;
      }

      .cls-1, .cls-2 {
        stroke: #333;
      }

      .cls-1 {
        stroke-width: 1.872px;
      }

      .cls-2, .cls-4 {
        stroke-width: 2px;
      }

      .cls-3 {
        fill: url(#linear-gradient);
      }

      .cls-4 {
        stroke: #fff;
      }
    </style>
    <linearGradient id="linear-gradient" x1="0.5" y1="1.001" x2="0.5" y2="-0.001" gradientUnits="objectBoundingBox">
      <stop offset="0" stop-color="#ffae2c"/>
      <stop offset="1" stop-color="#ffcb48"/>
    </linearGradient>
  </defs>
  <g id="Group_340" data-name="Group 340" transform="translate(1686.905 4897.626)">
    <path id="Path_9" data-name="Path 9" class="cls-1" d="M106.425,86.056c-6.626,5.3-9.638-3.614-18.072-3.614s-8.433,4.1-16.867,4.1-8.433-4.1-16.867-4.1-8.433,4.1-16.867,4.1-8.433-4.1-16.867-4.1S9.321,91.237,2.694,86.056c-5.3-4.1,3.253-8.313,3.253-14.939,0-6.747-4.1-6.747-4.1-13.373,0-6.747,4.1-6.747,4.1-13.373,0-6.747-4.1-6.747-4.1-13.373,0-6.747,4.1-6.747,4.1-13.373,0-6.747-8.554-10.843-3.253-14.939C9.321-2.615,12.333,6.3,20.766,6.3S29.2,2.2,37.633,2.2,46.066,6.3,54.5,6.3s8.433-4.1,16.867-4.1S79.8,6.3,88.233,6.3,99.8-2.494,106.425,2.686c5.3,4.1-3.253,8.313-3.253,14.939,0,6.747,4.1,6.747,4.1,13.373,0,6.747-4.1,6.747-4.1,13.373,0,6.747,4.1,6.747,4.1,13.373,0,6.747-5.662,7.47-3.976,13.855C105.341,79.43,111.606,81.84,106.425,86.056Z" transform="translate(0 0)"/>
    <rect id="Rectangle_45" data-name="Rectangle 45" class="cls-2" width="80.117" height="58.311" transform="translate(14.622 15.216)"/>
    <path id="Path_10" data-name="Path 10" class="cls-3" d="M17.3,63.943V17.8H85.37V63.943Z" transform="translate(3.346 3.44)"/>
    <circle id="Ellipse_24" data-name="Ellipse 24" class="cls-4" cx="4.699" cy="4.699" r="4.699" transform="translate(27.513 28.589)"/>
    <path id="Path_11" data-name="Path 11" class="cls-4" d="M15.3,43.323A101.093,101.093,0,0,0,26.625,41.4c2.169-.723,7.349-3.373,9.638,0s3.373,8.433,6.747,8.433,9.518,1.446,10.843-4.7S59.274,27.3,63.25,27.3s5.3,9.638,7.951,9.638,12.168,2.289,16.867,2.289" transform="translate(2.936 5.385)"/>
    <line id="Line_15" data-name="Line 15" class="cls-4" y2="17.349" transform="translate(83.294 26.42)"/>
    <line id="Line_16" data-name="Line 16" class="cls-4" x1="8.072" y2="7.952" transform="translate(57.753 51.841)"/>
    <line id="Line_17" data-name="Line 17" class="cls-4" x1="10" y2="10" transform="translate(67.27 50.395)"/>
    <line id="Line_18" data-name="Line 18" class="cls-4" x1="9.277" y2="9.277" transform="translate(76.065 51.961)"/>
  </g>
</svg>
