<svg xmlns="http://www.w3.org/2000/svg" viewBox="1646.934 2475 88.107 87.9">
  <defs>
    <style>
      .cls-1 {
        fill: #fff;
      }

      .cls-2 {
        fill: #293052;
      }
    </style>
  </defs>
  <g id="Group_24" data-name="Group 24" transform="translate(1646.884 2474.95)">
    <path id="Path_32" data-name="Path 32" class="cls-1" d="M75.137,12.863A44.034,44.034,0,0,0,12.863,75.137a44.24,44.24,0,0,0,62.274,0,43.742,43.742,0,0,0,0-62.274Z" transform="translate(0)"/>
    <path id="Path_33" data-name="Path 33" class="cls-2" d="M71,13.136A40.917,40.917,0,1,0,71,71h0A40.912,40.912,0,0,0,71,13.136ZM66.868,66.868l-1.378,1.378c-9.92,7.991-17.36,4.133-17.635,4.133-5.235-1.1-7.715-1.1-9.093-1.929a9.058,9.058,0,0,0-1.653-.827,2.951,2.951,0,0,1-3.858-.276l-.276-.276a2.963,2.963,0,0,1-.551-3.858h0c.276-.276-.276-1.378-.276-1.378s-1.929-2.755-3.307-4.684a10.187,10.187,0,0,1-1.653-5.787h0a12.234,12.234,0,0,1-2.2-3.031c-.276-.551-.827-.827-1.1-1.378-.276-.276-.551-.551-.551-.827v-.276a10.789,10.789,0,0,1,2.2-2.755l2.48-1.378a3.457,3.457,0,0,1,3.031-1.653,20.976,20.976,0,0,1,5.787.827l1.1.276a18.685,18.685,0,0,1,5.235,2.2,13.432,13.432,0,0,0,3.031,1.1,11.8,11.8,0,0,0,7.991-2.2c1.653-1.378,2.2-2.48,2.2-3.031a2.1,2.1,0,0,0-.551-1.378,3.8,3.8,0,0,1-.827-1.1l-.276-.276c-4.409-4.684-3.582-7.44-3.582-7.44a5.886,5.886,0,0,0-2.2-4.684l-.551-.827V25.26a56.435,56.435,0,0,0,6.613,1.378,11.3,11.3,0,0,0,3.031.276c2.2,0,4.133-.276,4.133-.827a49.552,49.552,0,0,1-6.062-1.653,22.538,22.538,0,0,0-3.858-1.378,25.7,25.7,0,0,1-3.858-1.378c7.715,1.929,10.471,2.755,14.053,3.031a9.374,9.374,0,0,0,2.755-.276c.551,0,2.2-.551,2.2-1.1a24.117,24.117,0,0,1-4.409-.551c-9.093-3.031-9.92-4.409-14.88-6.338a36.06,36.06,0,0,0-7.715-2.48,13.433,13.433,0,0,0-6.613,0c-6.889-1.653-8.542-1.378-10.471-1.1A34.609,34.609,0,0,1,66.868,17.27,24.692,24.692,0,0,1,71,22.5l.276.276A34.711,34.711,0,0,1,66.868,66.868ZM44,27.465a7.227,7.227,0,0,1,4.409,4.96C44,33.527,45.1,29.118,45.1,29.118Z" transform="translate(1.931 1.931)"/>
  </g>
</svg>
