<svg xmlns="http://www.w3.org/2000/svg" xmlns:xlink="http://www.w3.org/1999/xlink" viewBox="853 4878 137.7 127">
  <defs>
    <style>
      .cls-1 {
        fill: url(#linear-gradient);
      }

      .cls-2, .cls-3 {
        fill: none;
        stroke-linecap: round;
        stroke-linejoin: round;
        stroke-miterlimit: 10;
        stroke-width: 2px;
      }

      .cls-2 {
        stroke: #fff;
      }

      .cls-3 {
        stroke: #333;
      }
    </style>
    <linearGradient id="linear-gradient" x1="0.501" y1="1.001" x2="0.501" gradientUnits="objectBoundingBox">
      <stop offset="0" stop-color="#0da7fc"/>
      <stop offset="1" stop-color="#41c5ff"/>
    </linearGradient>
  </defs>
  <g id="Group_335" data-name="Group 335" transform="translate(853 4878)">
    <circle id="Ellipse_185" data-name="Ellipse 185" class="cls-1" cx="26" cy="26" r="26" transform="translate(42.8 68.5)"/>
    <g id="Group_331" data-name="Group 331">
      <path id="Path_595" data-name="Path 595" class="cls-2" d="M74.5,84.6l-4.4-1a5.319,5.319,0,0,0-4.7,1,6.132,6.132,0,0,0-2.1,4.3h0c0,3.1,2.5,4.7,5.6,5.6h0c3.1,1,5.6,2.5,5.6,5.6h0a6.008,6.008,0,0,1-.7,2.7,5.552,5.552,0,0,1-6.4,2.5l-4.1-1.2"/>
      <line id="Line_497" data-name="Line 497" class="cls-2" y1="5.1" x2="0.1" transform="translate(68.7 105.7)"/>
      <line id="Line_498" data-name="Line 498" class="cls-2" y2="5.1" transform="translate(68.9 78.2)"/>
    </g>
    <g id="Group_332" data-name="Group 332">
      <path id="Path_596" data-name="Path 596" class="cls-3" d="M100.5,44.7V27a6.7,6.7,0,0,1,6.7-6.7h0a6.7,6.7,0,0,1,6.7,6.7v1.3"/>
      <line id="Line_499" data-name="Line 499" class="cls-3" x1="15.3" transform="translate(98.2 44.7)"/>
      <line id="Line_500" data-name="Line 500" class="cls-3" x2="8" transform="translate(96.4 33.1)"/>
    </g>
    <g id="Group_334" data-name="Group 334">
      <path id="Path_597" data-name="Path 597" class="cls-3" d="M43.1,40a12,12,0,1,1,.3-14.4"/>
      <g id="Group_333" data-name="Group 333">
        <line id="Line_501" data-name="Line 501" class="cls-3" x2="16" transform="translate(19.6 30.5)"/>
        <line id="Line_502" data-name="Line 502" class="cls-3" x2="14" transform="translate(19.6 34.5)"/>
      </g>
    </g>
    <circle id="Ellipse_186" data-name="Ellipse 186" class="cls-3" cx="31.5" cy="31.5" r="31.5" transform="translate(37.3 63)"/>
    <circle id="Ellipse_187" data-name="Ellipse 187" class="cls-3" cx="31.5" cy="31.5" r="31.5" transform="translate(1 1)"/>
    <circle id="Ellipse_188" data-name="Ellipse 188" class="cls-3" cx="26" cy="26" r="26" transform="translate(6.5 6.5)"/>
    <circle id="Ellipse_189" data-name="Ellipse 189" class="cls-3" cx="26" cy="26" r="26" transform="translate(79.2 6.5)"/>
    <circle id="Ellipse_190" data-name="Ellipse 190" class="cls-3" cx="31.5" cy="31.5" r="31.5" transform="translate(73.7 1)"/>
  </g>
</svg>
