<svg xmlns="http://www.w3.org/2000/svg" viewBox="1526 7306 28 28">
  <g id="Group_324" data-name="Group 324" transform="translate(1526 7306)">
    <path id="Path_582" data-name="Path 582" d="M27,6H22V3a2.946,2.946,0,0,0-3-3H3A2.946,2.946,0,0,0,0,3V23a4.951,4.951,0,0,0,5,5H24a4.012,4.012,0,0,0,4-4V7A.945.945,0,0,0,27,6ZM5,26a2.946,2.946,0,0,1-3-3V3A.945.945,0,0,1,3,2H19a.945.945,0,0,1,1,1V24a3.606,3.606,0,0,0,.6,2Zm21-2a2,2,0,0,1-4,0V8h4Z"/>
    <path id="Path_583" data-name="Path 583" d="M17,5H5A.945.945,0,0,0,4,6,.945.945,0,0,0,5,7H17a.945.945,0,0,0,1-1A.945.945,0,0,0,17,5Z"/>
    <path id="Path_584" data-name="Path 584" d="M17,9H5a.945.945,0,0,0-1,1,.945.945,0,0,0,1,1H17a.945.945,0,0,0,1-1A.945.945,0,0,0,17,9Z"/>
    <path id="Path_585" data-name="Path 585" d="M17,17H5a.945.945,0,0,0-1,1v4a.945.945,0,0,0,1,1H17a.945.945,0,0,0,1-1V18A.945.945,0,0,0,17,17Zm-1,4H6V19H16Z"/>
  </g>
</svg>
