<svg xmlns="http://www.w3.org/2000/svg" viewBox="911 7306 29.905 30.025">
  <g id="Group_325" data-name="Group 325" transform="translate(911 7306.025)">
    <path id="Path_586" data-name="Path 586" d="M28,16a1,1,0,0,1-2,0V14h1a.945.945,0,0,1,1,1ZM15,28a1,1,0,1,1,1-1A.945.945,0,0,1,15,28ZM4,16a.945.945,0,0,1-1,1,.945.945,0,0,1-1-1V15a.945.945,0,0,1,1-1H4Zm23-4H26v-.7A11.18,11.18,0,0,0,15.7,0,10.74,10.74,0,0,0,7.4,3,11.452,11.452,0,0,0,4,11v1H3a2.946,2.946,0,0,0-3,3v1a2.946,2.946,0,0,0,3,3,2.946,2.946,0,0,0,3-3V11A9.069,9.069,0,0,1,8.8,4.4,8.941,8.941,0,0,1,15.6,2,9.2,9.2,0,0,1,24,11.3V17a8.91,8.91,0,0,1-6.4,8.6A2.883,2.883,0,0,0,15,24a3,3,0,0,0,0,6,2.908,2.908,0,0,0,2.9-2.4,11,11,0,0,0,7.9-8.8,4.253,4.253,0,0,0,1.1.2,2.946,2.946,0,0,0,3-3V15A2.808,2.808,0,0,0,27,12Z"/>
  </g>
</svg>
