<svg xmlns="http://www.w3.org/2000/svg" xmlns:xlink="http://www.w3.org/1999/xlink" viewBox="628 4217.657 80.745 75.029">
  <defs>
    <style>
      .cls-1 {
        fill: url(#linear-gradient);
      }

      .cls-2, .cls-3 {
        fill: none;
        stroke-linecap: round;
        stroke-linejoin: round;
        stroke-miterlimit: 10;
        stroke-width: 2px;
      }

      .cls-2 {
        stroke: #333;
      }

      .cls-3 {
        stroke: #fff;
      }
    </style>
    <linearGradient id="linear-gradient" x1="0.5" y1="1" x2="0.5" y2="-0.001" gradientUnits="objectBoundingBox">
      <stop offset="0" stop-color="#ffae2c"/>
      <stop offset="1" stop-color="#ffcb48"/>
    </linearGradient>
  </defs>
  <g id="Group_275" data-name="Group 275" transform="translate(629 4218.657)">
    <ellipse id="Ellipse_167" data-name="Ellipse 167" class="cls-1" cx="29.369" cy="29.369" rx="29.369" ry="29.369" transform="translate(7.146 7.146)"/>
    <ellipse id="Ellipse_168" data-name="Ellipse 168" class="cls-2" cx="36.514" cy="36.514" rx="36.514" ry="36.514" transform="translate(0 0)"/>
    <path id="Path_419" data-name="Path 419" class="cls-3" d="M37.9,34.473,42.545,29.9V43.62" transform="translate(-11.532 -9.249)"/>
    <line id="Line_223" data-name="Line 223" class="cls-3" x2="9.218" transform="translate(26.368 34.371)"/>
    <path id="Path_420" data-name="Path 420" class="cls-3" d="M57.5,59.845,62.145,55.2V68.991" transform="translate(-17.127 -16.47)"/>
    <line id="Line_224" data-name="Line 224" class="cls-3" x2="9.218" transform="translate(40.373 52.521)"/>
    <ellipse id="Ellipse_169" data-name="Ellipse 169" class="cls-3" cx="4.859" cy="6.717" rx="4.859" ry="6.717" transform="translate(40.087 21.151)"/>
    <ellipse id="Ellipse_170" data-name="Ellipse 170" class="cls-3" cx="4.859" cy="6.717" rx="4.859" ry="6.717" transform="translate(26.082 39.015)"/>
    <line id="Line_225" data-name="Line 225" class="cls-2" x2="5.574" transform="translate(55.879 5.502)"/>
    <line id="Line_226" data-name="Line 226" class="cls-2" x2="5.574" transform="translate(55.879 67.527)"/>
    <line id="Line_227" data-name="Line 227" class="cls-2" x2="5.574" transform="translate(62.525 62.167)"/>
    <line id="Line_228" data-name="Line 228" class="cls-2" x2="5.574" transform="translate(62.525 11.004)"/>
    <line id="Line_229" data-name="Line 229" class="cls-2" x2="5.645" transform="translate(68.813 19.794)"/>
    <line id="Line_230" data-name="Line 230" class="cls-2" x2="5.645" transform="translate(68.813 53.593)"/>
    <line id="Line_231" data-name="Line 231" class="cls-2" x2="5.574" transform="translate(72.171 45.161)"/>
    <line id="Line_232" data-name="Line 232" class="cls-2" x2="5.574" transform="translate(72.171 28.297)"/>
    <line id="Line_233" data-name="Line 233" class="cls-2" x2="5.645" transform="translate(73.1 36.586)"/>
  </g>
</svg>
