<svg xmlns="http://www.w3.org/2000/svg" viewBox="269 5188.981 1920.3 244.125">
  <defs>
    <style>
      .cls-1, .cls-2 {
        fill: #f5f6f7;
      }

      .cls-1 {
        opacity: 0.3;
      }
    </style>
  </defs>
  <g id="Group_675" data-name="Group 675" transform="translate(2031 493)">
    <path id="Path_792" data-name="Path 792" class="cls-1" d="M1920.3,45.507c-52.108,0-167.726-21.9-290.345-38.406a810.543,810.543,0,0,0-262.341,7.7L1306,26.7a713.247,713.247,0,0,1-195.13,10.5L936.246,22.5a656.231,656.231,0,0,0-118.118.7L668.3,37.806a623.576,623.576,0,0,1-159.725-5.1l-135.821-22A667.444,667.444,0,0,0,115.018,19S24.2,45.507,0,45.507V205.532H1920.3Z" transform="translate(-1762 4696.067)"/>
    <path id="Path_793" data-name="Path 793" class="cls-2" d="M0,83.907c52.108,0,167.726-21.9,290.345-38.406a810.543,810.543,0,0,1,262.341,7.7L614.3,65.1a713.248,713.248,0,0,0,195.13,10.5L984.054,60.9a656.231,656.231,0,0,1,118.118.7L1252,76.106a623.575,623.575,0,0,0,159.725-5.1l135.821-22a669.565,669.565,0,0,1,257.74,8.5s90.814,26.5,115.018,26.5V244.032H0Z" transform="translate(-1762 4696.073)"/>
  </g>
</svg>
