<svg xmlns="http://www.w3.org/2000/svg" viewBox="1028.607 2472.581 92.393 92.938">
  <path id="Union_1" data-name="Union 1" d="M-391.678-291.477c0-3.2,1.547-5.416,3.978-5.416,1.767,0,2.541,1.106,3.094,2.321l-1.327.662a1.967,1.967,0,0,0-1.767-1.436c-1.437-.11-2.321,1.548-2.321,3.868,0,2.21.884,3.868,2.321,3.868.884,0,1.436-.663,1.767-1.548l1.327.663a3.234,3.234,0,0,1-3.094,2.431C-390.131-286.062-391.678-288.382-391.678-291.477ZM-383.39-297l3.2-.995c1.879-.552,3.2.553,3.647,2.321.552,1.657.11,3.425-1.768,3.978l-1.657.442,1.1,3.758-1.548.442Zm3.537.443-1.437.442.995,3.316,1.437-.443c.773-.221,1.1-.995.883-2.1a1.633,1.633,0,0,0-1.488-1.271A1.417,1.417,0,0,0-379.853-296.56Zm-18.124,8.841,1.437-4.31-3.315-1.215-1.548,4.421-1.548-.553,3.426-9.946,1.547.553-1.436,4.089,3.425,1.215,1.437-4.089L-393-297l-3.425,9.835Zm-18.9-7.515,2.873-3.647-3.425-2.652-2.873,3.646-.663-.552,6.52-8.177.663.552-3.1,3.868,3.426,2.763,3.094-3.978.553.552-6.41,8.178Zm53.266-.552v-.774a3.04,3.04,0,0,0,2.21-.553,1.867,1.867,0,0,0,.221-2.541c-.712-.864-1.75-.653-2.88-.442-1.327.248-2.778.5-3.971-1a2.665,2.665,0,0,1,.443-3.978,3.762,3.762,0,0,1,2.984-.662v.883a2.987,2.987,0,0,0-2.542.443,1.8,1.8,0,0,0-.331,2.763c.849,1.062,1.981.847,3.16.633,1.273-.232,2.6-.463,3.692.914a2.515,2.515,0,0,1-.443,3.647,2.863,2.863,0,0,1-1.88.746A2.724,2.724,0,0,1-363.609-295.786Zm-63.764-9.835.552-.553,2.542,3.094,2.984-2.431-2.431-2.984.662-.553,2.432,2.984,3.2-2.652-2.432-2.984.553-.553,2.984,3.758-8.067,6.52Zm69.068,2.431c-1.436-1.215-1.547-2.541-.995-3.425l-4.863-1.216.553-.662,4.642,1.215.995-1.215-3.316-2.763.663-.663,8.067,6.631-1.768,2.1a2.49,2.49,0,0,1-1.872.871A3.294,3.294,0,0,1-358.3-303.191Zm-.11-3.425c-.662.773-.331,1.879.663,2.762s2.21.995,2.873.111l1.1-1.437-3.537-2.873Zm-16.355-1.437a13.012,13.012,0,0,0-5.857-9.282,20.558,20.558,0,0,1,1.768,9.282h-1.989s.884-7.624-3.316-10.056c-2.21,1.658-6.63,3.868-6.63,10.056h-2.1s-.662-6.52,6.962-11.051a33.048,33.048,0,0,1-2.762-2.32l-2.763,2.1,1.658,1.768-1.327,1.436-2.32-2.1s-3.537,1.658-3.537,10.056h-1.657s.221-6.078,1.767-8.951c-2.1,1.658-5.856,3.868-5.856,8.951h-2.211s-2.541-6.741,12.709-15.36c-2.1-2.321-4.752-8.067-1.326-12.709-3.758,2.32-5.967,3.868-8.4,3.758a2.171,2.171,0,0,1-.995.995l-1.1.552a12.654,12.654,0,0,1-10.94,0l-2.873-1.436a.964.964,0,0,1,0-1.768l3.537-1.658a11.764,11.764,0,0,1,9.835,0l1.768.774a2.056,2.056,0,0,1,.884.774,17.349,17.349,0,0,0,7.4-4.531,14.547,14.547,0,0,1-4.42-2.762,3.737,3.737,0,0,1-1.106-.111l-1.767-.662a11.538,11.538,0,0,1-6.852-6.962l-1.327-3.647a.942.942,0,0,1,1.216-1.215l3.646,1.326a11.538,11.538,0,0,1,6.962,6.852l.663,1.879a1.309,1.309,0,0,1,.11,1.1c.774.663,3.758,2.873,6.741,2.873.221-.884.552-4.531.663-5.857a2.378,2.378,0,0,1-.663-.774l-.774-1.767a11.366,11.366,0,0,1,0-9.835l1.658-3.537a.963.963,0,0,1,1.767,0l1.658,3.537a11.757,11.757,0,0,1,0,9.835l-.774,1.767a2.042,2.042,0,0,1-.773.884l.221,5.857s2.984.663,7.072-2.873a3.065,3.065,0,0,1,.11-.995l.663-1.768a11.537,11.537,0,0,1,6.962-6.851l3.758-1.106a.942.942,0,0,1,1.215,1.216l-1.327,3.646a11.536,11.536,0,0,1-6.852,6.962l-1.878.663a1.994,1.994,0,0,1-1.1.11,21.116,21.116,0,0,1-4.2,2.542c1.548,1.215,5.415,4.089,7.625,4.42a1.13,1.13,0,0,1,.663-.552l1.105-.553a12.654,12.654,0,0,1,10.94,0l2.873,1.436a.964.964,0,0,1,0,1.768l-2.873,1.437a12.66,12.66,0,0,1-10.94,0l-1.105-.553a2.038,2.038,0,0,1-.884-.774,45.889,45.889,0,0,1-6.741-3.2c-1.436-1.1-2.32-1.658-3.2-1.658-1.879,0-5.083.774-5.083,5.415,0,1.1.221,3.2,2.984,5.967,2.762,2.653,15.029,7.4,15.029,17.239Zm-13.262-5.635,1.105-1.216s2.211,1.548,2.211,6.741c-.884,0-1.989.11-1.989.11S-386.043-310.263-388.032-313.689Zm-41.772,4.31,3.316-4.531h-5.636l-.442-.773h6.74l3.978-2.1.332.774-3.978,1.989-3.868,5.415Zm78.9,0,1.879-3.537-3.537-1.767-1.768,3.425-.662-.442,1.767-3.426L-356.868-317l-1.879,3.537-.663-.443,2.21-4.2,9.173,4.863-2.211,4.2Zm3.868-8.177,1.1-3.868-3.758-1.1-1.105,3.757-.774-.221,1.1-3.758-3.978-1.105-1.1,3.758-.774-.221,1.327-4.531,10.056,2.873-1.327,4.642Zm-88.076-5.415.774-.11,1.1,3.758,3.758-.995-1.1-3.758.773-.221,1.106,3.758,3.978-1.1-1-3.868.663-.222,1.327,4.642-10.057,2.763Zm80.672-4.53v-.774l8.841-3.868-8.509-.442v-.884l10.5.662-.11.884-8.62,3.758,8.4.553-.11.773Zm-81.556-2.542a2.662,2.662,0,0,1,2.763-2.763c1.879-.11,2.873.884,3.094,1.879l4.31-2.431.11.884-4.2,2.32.11,1.548,4.311-.222.11.774-10.388.663Zm2.984-1.879c-1.436,0-2.32.774-2.21,1.879l.11,1.768,4.531-.221-.111-1.768c0-1.025-.856-1.67-2.038-1.67Q-432.865-331.935-433.009-331.923Zm-2.873-5.525.332-2.321c.331-2.431,2.872-3.315,5.746-2.873,2.984.553,4.973,2.211,4.531,4.642l-.331,2.21Zm1.1-2.1L-435-338l8.73,1.437.221-1.548c.331-1.989-1.436-3.2-3.868-3.647a9.322,9.322,0,0,0-1.255-.09C-433.035-341.848-434.5-341.184-434.777-339.548Zm79.788.331c-.443-2.21,1.657-3.868,4.641-4.421s5.526.222,5.967,2.542c.443,2.21-1.657,3.868-4.641,4.42a9.211,9.211,0,0,1-1.673.16C-352.912-336.515-354.633-337.435-354.989-339.217Zm4.863-3.647c-2.542.553-4.421,1.768-4.09,3.537.222,1.657,2.432,2.21,4.973,1.768s4.421-1.768,4.09-3.426c-.26-1.385-1.6-2.024-3.395-2.024A9.268,9.268,0,0,0-350.126-342.864Zm-82.772-6.63.332-.884,10.829,1.215-.331.774-2.652-.332-1.327,3.426,2.1,1.657-.331.774Zm6.078,3.867,1.216-3.094-6.189-.773Zm70.151-.111,9.821-3.712.273.723-9.82,3.713Zm-72.8-11.05.552-.662,3.758,2.762,2.542-3.536-3.758-2.763.442-.663,8.51,6.078-.553.663-3.978-2.873-2.541,3.537,3.978,2.873-.443.662Zm74.483,4.642-.884-1.658-3.758,2.1-.331-.662,9.062-5.195,1.215,2.432a2.743,2.743,0,0,1-1.437,3.758,3.346,3.346,0,0,1-1.67.475A2.507,2.507,0,0,1-354.989-352.146Zm-.222-2.1.884,1.547c.553.995,1.768,1.1,2.873.443s1.658-1.658,1.105-2.653l-.884-1.547Zm-12.266-6.3,7.072-7.735,3.537,3.2-.553.552-2.873-2.652-2.652,2.873,2.762,2.652-.442.553-2.873-2.542-2.873,3.094,2.984,2.653-.552.553Zm-55.255-4.641.553-.553,6.631,7.072,2.652-2.541.553.552-3.315,3.094Zm50.946,1.657,4.973-8.177-1.989-1.326.442-.663,4.752,2.984-.442.663-1.99-1.326-5.083,8.288ZM-409.8-368.5c-1.216-2.762-.884-5.414,1.1-6.409a3.042,3.042,0,0,1,3.2.553l-.443.662a2.5,2.5,0,0,0-2.431-.442c-1.548.662-1.768,2.873-.663,5.3s2.873,3.647,4.421,2.984a2.394,2.394,0,0,0,1.215-2.32h.774a2.97,2.97,0,0,1-1.658,2.984,2.97,2.97,0,0,1-1.215.26C-407.145-364.926-408.828-366.289-409.8-368.5Zm34.81,3.206.221-2.653-3.426-1.326-1.547,2.21-.884-.331,6.409-8.73.884.331-.884,10.83Zm-2.763-4.642,3.094,1.215.552-6.3Zm-24.423-7.293.774-.222,2.21,9.394,3.537-.774.221.774-4.42.995Zm19.118,9.393.995-8.951-3.757,8.62-.332-.11-1.768-9.173-.994,8.951-.774-.11,1.1-10.387,1.215.11,1.658,8.51,3.425-7.957,1.215.11-1.215,10.387ZM-394.1-378.729l.771-.064.87,10.463-.772.064Z" transform="translate(1464.607 2851.581)"/>
</svg>
