<svg xmlns="http://www.w3.org/2000/svg" viewBox="4890.02 3367.058 173.071 57.883">
  <defs>
    <style>
      .cls-1 {
        fill: #b7b7b7;
      }

      .cls-2 {
        fill: #fff;
      }
    </style>
  </defs>
  <g id="app_store" transform="translate(4529 2422)">
    <g id="Group_593" data-name="Group 593" transform="translate(361.02 945.058)">
      <g id="Group_591" data-name="Group 591" transform="translate(0 0)">
        <g id="Group_589" data-name="Group 589">
          <g id="Group_588" data-name="Group 588">
            <path id="Path_709" data-name="Path 709" class="cls-1" d="M159.324,0H10.853A19.611,19.611,0,0,0,7.959.289a8.73,8.73,0,0,0-2.749.868A8.828,8.828,0,0,0,2.894,2.894,8.828,8.828,0,0,0,1.158,5.21,10.088,10.088,0,0,0,.289,7.959,21.749,21.749,0,0,0,0,10.853V46.886A19.611,19.611,0,0,0,.289,49.78a8.73,8.73,0,0,0,.868,2.749,7.567,7.567,0,0,0,1.737,2.46A8.828,8.828,0,0,0,5.21,56.726a8.73,8.73,0,0,0,2.749.868,19.612,19.612,0,0,0,2.894.289H162.218a19.611,19.611,0,0,0,2.894-.289,8.73,8.73,0,0,0,2.749-.868,10.232,10.232,0,0,0,4.052-4.052,8.73,8.73,0,0,0,.868-2.749,19.613,19.613,0,0,0,.289-2.894V10.853a19.613,19.613,0,0,0-.289-2.894,8.73,8.73,0,0,0-.868-2.749,8.828,8.828,0,0,0-1.736-2.315,8.828,8.828,0,0,0-2.315-1.737,8.73,8.73,0,0,0-2.749-.868A19.612,19.612,0,0,0,162.218,0h-2.894Z" transform="translate(0 0)"/>
            <path id="Path_710" data-name="Path 710" d="M11.8,56.179H10.5a9.374,9.374,0,0,1-2.749-.289,12.223,12.223,0,0,1-2.46-.724A10.272,10.272,0,0,1,3.26,53.719a6.523,6.523,0,0,1-1.447-2.026,6.148,6.148,0,0,1-.724-2.46A22.294,22.294,0,0,1,.8,46.483V10.451A9.868,9.868,0,0,1,1.089,7.7a15.065,15.065,0,0,1,.868-2.315A10.272,10.272,0,0,1,3.4,3.36,10.272,10.272,0,0,1,5.431,1.913a6.94,6.94,0,0,1,2.46-.724A8.457,8.457,0,0,1,10.5.9H161.86a9.868,9.868,0,0,1,2.749.289,15.811,15.811,0,0,1,2.46.724A10.272,10.272,0,0,1,169.1,3.36a6.523,6.523,0,0,1,1.447,2.026,7.147,7.147,0,0,1,.724,2.315,17.729,17.729,0,0,1,.289,2.749V46.483a19.773,19.773,0,0,1-.289,2.749,12.224,12.224,0,0,1-.724,2.46,10.272,10.272,0,0,1-1.447,2.026,6.523,6.523,0,0,1-2.026,1.447,6.148,6.148,0,0,1-2.46.724c-.868.145-1.881.145-2.749.289H11.8Z" transform="translate(0.358 0.402)"/>
          </g>
        </g>
        <g id="XMLID_3_" transform="translate(14.465 12.59)">
          <g id="XMLID_4_">
            <g id="XMLID_5_">
              <path id="XMLID_7_" class="cls-2" d="M31.419,23.171a7.4,7.4,0,0,1,3.473-6.078A7.782,7.782,0,0,0,29.1,13.91c-2.46-.289-4.775,1.447-6.078,1.447s-3.184-1.447-5.21-1.447A7.929,7.929,0,0,0,11.3,17.817c-2.749,4.775-.724,12.011,2.026,15.918,1.3,1.881,2.894,4.052,4.92,4.052,2.026-.145,2.749-1.3,5.21-1.3s3.039,1.3,5.21,1.3,3.473-1.881,4.775-3.907a13.019,13.019,0,0,0,2.171-4.486A6.393,6.393,0,0,1,31.419,23.171Z" transform="translate(-9.996 -6.385)"/>
              <path id="XMLID_6_" class="cls-2" d="M23.448,13.765A6.9,6.9,0,0,0,25.04,8.7a6.453,6.453,0,0,0-4.631,2.46,6.362,6.362,0,0,0-1.592,4.92A6.281,6.281,0,0,0,23.448,13.765Z" transform="translate(-6.078 -8.7)"/>
            </g>
          </g>
          <g id="Group_590" data-name="Group 590" transform="translate(35.459 13.313)">
            <path id="Path_711" data-name="Path 711" class="cls-2" d="M45.787,31.124h-6.8l-1.592,4.92H34.5L41.012,18.1h2.894l6.512,17.944H47.524ZM39.71,28.953h5.5l-2.749-7.959h-.145Z" transform="translate(-34.5 -17.811)"/>
            <path id="Path_712" data-name="Path 712" class="cls-2" d="M59,28.058c0,4.052-2.171,6.657-5.5,6.657A4.3,4.3,0,0,1,49.449,32.4h0v6.512H46.7V21.546h2.6v2.171h0A4.527,4.527,0,0,1,53.5,21.4C56.685,21.257,59,24.006,59,28.058Zm-2.894,0c0-2.6-1.3-4.341-3.473-4.341-2.026,0-3.473,1.737-3.473,4.341S50.607,32.4,52.633,32.4C54.8,32.4,56.106,30.663,56.106,28.058Z" transform="translate(-29.046 -16.337)"/>
            <path id="Path_713" data-name="Path 713" class="cls-2" d="M68.9,28.058c0,4.052-2.171,6.657-5.5,6.657A4.3,4.3,0,0,1,59.349,32.4h0v6.512H56.6V21.546h2.6v2.171h0A4.527,4.527,0,0,1,63.4,21.4C66.73,21.257,68.9,24.006,68.9,28.058Zm-2.749,0c0-2.6-1.3-4.341-3.473-4.341-2.026,0-3.473,1.737-3.473,4.341S60.652,32.4,62.678,32.4C64.848,32.4,66.151,30.663,66.151,28.058Z" transform="translate(-24.619 -16.337)"/>
            <path id="Path_714" data-name="Path 714" class="cls-2" d="M72.46,31.068c.145,1.737,1.881,2.894,4.341,2.894,2.315,0,3.907-1.158,3.907-2.749,0-1.447-1.013-2.171-3.328-2.749l-2.315-.579c-3.328-.868-4.775-2.315-4.775-4.775,0-3.039,2.749-5.21,6.512-5.21s6.367,2.171,6.512,5.21H80.564c-.145-1.736-1.592-2.894-3.762-2.894s-3.618,1.158-3.618,2.749c0,1.3,1.013,2.026,3.328,2.6L78.538,26c3.618.868,5.209,2.315,5.209,4.92,0,3.328-2.749,5.5-6.946,5.5-4.052,0-6.657-2.026-6.8-5.354h2.46Z" transform="translate(-18.628 -17.9)"/>
            <path id="Path_715" data-name="Path 715" class="cls-2" d="M84.686,19.3v3.039h2.46V24.51h-2.46v7.235c0,1.158.434,1.592,1.592,1.592h.868v2.171a4.033,4.033,0,0,1-1.447.145c-2.6,0-3.618-1.013-3.618-3.473V24.654H80.2V22.484h1.881V19.445h2.6Z" transform="translate(-14.068 -17.274)"/>
            <path id="Path_716" data-name="Path 716" class="cls-2" d="M86.1,28.057C86.1,24,88.56,21.4,92.322,21.4s6.222,2.6,6.222,6.657c0,4.2-2.46,6.657-6.222,6.657C88.415,34.713,86.1,32.108,86.1,28.057Zm9.7,0c0-2.894-1.3-4.486-3.473-4.486s-3.473,1.592-3.473,4.486,1.3,4.486,3.473,4.486S95.8,30.806,95.8,28.057Z" transform="translate(-11.43 -16.335)"/>
            <path id="Path_717" data-name="Path 717" class="cls-2" d="M96.2,21.4h2.6v2.315h0a3.137,3.137,0,0,1,3.184-2.315c.434,0,.724,0,.868.145V24a2.488,2.488,0,0,0-1.158-.145c-1.736,0-2.749,1.158-2.749,3.039v7.814H96.2V21.4Z" transform="translate(-6.915 -16.335)"/>
            <path id="Path_718" data-name="Path 718" class="cls-2" d="M113.066,30.706c-.289,2.315-2.749,4.052-5.644,4.052-3.762,0-6.222-2.6-6.222-6.657s2.315-6.8,6.078-6.8c3.618,0,5.933,2.46,5.933,6.512v.868h-9.261v.145a3.5,3.5,0,0,0,3.473,3.762,3.084,3.084,0,0,0,3.039-1.881ZM103.949,26.8h6.512a3.078,3.078,0,0,0-3.184-3.328A3.366,3.366,0,0,0,103.949,26.8Z" transform="translate(-4.679 -16.38)"/>
          </g>
        </g>
      </g>
      <g id="XMLID_2_" transform="translate(51.516 12.156)">
        <g id="Group_592" data-name="Group 592">
          <path id="Path_719" data-name="Path 719" class="cls-2" d="M38.784,8.7c2.6,0,4.052,1.592,4.052,4.341s-1.447,4.341-4.052,4.341H35.6V8.7Zm-1.737,7.525h1.592a2.775,2.775,0,0,0,2.894-3.039,2.706,2.706,0,0,0-2.894-3.039H37.047Z" transform="translate(-35.6 -8.266)"/>
          <path id="Path_720" data-name="Path 720" class="cls-2" d="M41.7,13.428c0-2.171,1.158-3.328,3.039-3.328s3.039,1.3,3.039,3.328c0,2.171-1.158,3.328-3.039,3.328C42.858,16.9,41.7,15.6,41.7,13.428Zm4.775,0q0-2.171-1.737-2.171c-1.158,0-1.736.868-1.736,2.171,0,1.447.579,2.315,1.736,2.315S46.475,14.875,46.475,13.428Z" transform="translate(-32.873 -7.64)"/>
          <path id="Path_721" data-name="Path 721" class="cls-2" d="M53.791,16.712h-1.3l-1.3-4.775h-.145l-1.3,4.775h-1.3L46.7,10.2H48l1.158,4.92H49.3l1.3-4.92h1.3l1.3,4.92h.145l1.158-4.92h1.3Z" transform="translate(-30.637 -7.595)"/>
          <path id="Path_722" data-name="Path 722" class="cls-2" d="M53.9,10.245h1.3v1.013h.145A1.939,1.939,0,0,1,57.228,10.1a2.174,2.174,0,0,1,2.315,2.46v4.2h-1.3V12.849c0-1.013-.434-1.592-1.447-1.592A1.448,1.448,0,0,0,55.2,12.849v3.762H53.9V10.245Z" transform="translate(-27.418 -7.64)"/>
          <path id="Path_723" data-name="Path 723" class="cls-2" d="M59.1,8.4h1.3v9.117H59.1Z" transform="translate(-25.094 -8.4)"/>
          <path id="Path_724" data-name="Path 724" class="cls-2" d="M61.2,13.428c0-2.171,1.158-3.328,3.039-3.328s3.039,1.3,3.039,3.328c0,2.171-1.158,3.328-3.039,3.328C62.358,16.9,61.2,15.6,61.2,13.428Zm4.92,0q0-2.171-1.736-2.171c-1.158,0-1.737.868-1.737,2.171,0,1.447.579,2.315,1.737,2.315C65.4,15.744,66.12,14.875,66.12,13.428Z" transform="translate(-24.155 -7.64)"/>
          <path id="Path_725" data-name="Path 725" class="cls-2" d="M66.4,14.875c0-1.158.868-1.881,2.46-1.881l1.736-.145v-.579c0-.724-.434-1.013-1.3-1.013-.724,0-1.158.289-1.3.724h-1.3c.145-1.158,1.158-1.881,2.6-1.881,1.592,0,2.6.868,2.6,2.171v4.486H70.6v-.868h-.145A2.19,2.19,0,0,1,68.426,16.9,1.978,1.978,0,0,1,66.4,14.875Zm4.2-.579v-.579L69,13.862c-.868,0-1.3.434-1.3.868,0,.579.579.868,1.158.868A1.37,1.37,0,0,0,70.6,14.3Z" transform="translate(-21.83 -7.64)"/>
          <path id="Path_726" data-name="Path 726" class="cls-2" d="M71.3,14.188c0-2.026,1.013-3.328,2.749-3.328a2.309,2.309,0,0,1,2.026,1.158h.145V8.4h1.3v9.117h-1.3V16.5h-.145a2.309,2.309,0,0,1-2.026,1.158C72.458,17.661,71.3,16.359,71.3,14.188Zm1.447,0c0,1.447.724,2.171,1.736,2.171s1.737-.868,1.737-2.171-.724-2.171-1.737-2.171C73.326,12.018,72.747,12.886,72.747,14.188Z" transform="translate(-19.639 -8.4)"/>
          <path id="Path_727" data-name="Path 727" class="cls-2" d="M79.2,13.428c0-2.171,1.158-3.328,3.039-3.328s3.039,1.3,3.039,3.328c0,2.171-1.158,3.328-3.039,3.328C80.358,16.9,79.2,15.6,79.2,13.428Zm4.92,0q0-2.171-1.736-2.171c-1.158,0-1.737.868-1.737,2.171,0,1.447.579,2.315,1.737,2.315C83.4,15.744,84.12,14.875,84.12,13.428Z" transform="translate(-16.107 -7.64)"/>
          <path id="Path_728" data-name="Path 728" class="cls-2" d="M84.7,10.245H86v1.013h.145A1.939,1.939,0,0,1,88.028,10.1a2.174,2.174,0,0,1,2.315,2.46v4.2h-1.3V12.849c0-1.013-.434-1.592-1.447-1.592A1.448,1.448,0,0,0,86,12.849v3.762H84.7Z" transform="translate(-13.648 -7.64)"/>
          <path id="Path_729" data-name="Path 729" class="cls-2" d="M94.26,9.1v1.592h1.447v1.158H94.26v3.328c0,.724.289,1.013.868,1.013h.434V17.2h-.724c-1.447,0-2.026-.434-2.026-1.737V11.849H91.8V10.837h1.013V9.1Z" transform="translate(-10.474 -8.087)"/>
          <path id="Path_730" data-name="Path 730" class="cls-2" d="M95.7,8.4H97v3.618h.145a2.012,2.012,0,0,1,2.026-1.158,2.174,2.174,0,0,1,2.315,2.46v4.2h-1.3V13.61c0-1.013-.434-1.592-1.447-1.592a1.518,1.518,0,0,0-1.592,1.592v3.762h-1.3V8.4Z" transform="translate(-8.73 -8.4)"/>
          <path id="Path_731" data-name="Path 731" class="cls-2" d="M106.633,15.02c-.289,1.158-1.3,1.881-2.894,1.881-1.881,0-3.039-1.3-3.039-3.328s1.158-3.473,3.039-3.473,2.894,1.3,2.894,3.328v.434H102a1.713,1.713,0,0,0,1.737,1.881,1.867,1.867,0,0,0,1.592-.724ZM102,12.849h3.328a1.642,1.642,0,0,0-1.592-1.736A1.867,1.867,0,0,0,102,12.849Z" transform="translate(-6.495 -7.64)"/>
        </g>
      </g>
    </g>
  </g>
</svg>
