<svg xmlns="http://www.w3.org/2000/svg" xmlns:xlink="http://www.w3.org/1999/xlink" viewBox="5094 3367.058 174.479 57.883">
  <defs>
    <style>
      .cls-1 {
        fill: #a6a6a6;
      }

      .cls-10, .cls-2, .cls-3 {
        fill: #fff;
      }

      .cls-2 {
        stroke: #fff;
        stroke-miterlimit: 10;
        stroke-width: 0.2px;
      }

      .cls-4 {
        fill: url(#linear-gradient);
      }

      .cls-5 {
        fill: url(#linear-gradient-2);
      }

      .cls-6 {
        fill: url(#linear-gradient-3);
      }

      .cls-7 {
        fill: url(#linear-gradient-4);
      }

      .cls-8 {
        opacity: 0.2;
      }

      .cls-9 {
        opacity: 0.12;
      }

      .cls-10 {
        opacity: 0.25;
      }
    </style>
    <linearGradient id="linear-gradient" x1="0.908" y1="6.632" x2="-0.383" y2="5.96" gradientUnits="objectBoundingBox">
      <stop offset="0" stop-color="#00a0ff"/>
      <stop offset="0.007" stop-color="#00a1ff"/>
      <stop offset="0.26" stop-color="#00beff"/>
      <stop offset="0.512" stop-color="#00d2ff"/>
      <stop offset="0.76" stop-color="#00dfff"/>
      <stop offset="1" stop-color="#00e3ff"/>
    </linearGradient>
    <linearGradient id="linear-gradient-2" x1="1.077" y1="17.2" x2="-1.307" y2="17.2" gradientUnits="objectBoundingBox">
      <stop offset="0" stop-color="#ffe000"/>
      <stop offset="0.409" stop-color="#ffbd00"/>
      <stop offset="0.775" stop-color="orange"/>
      <stop offset="1" stop-color="#ff9c00"/>
    </linearGradient>
    <linearGradient id="linear-gradient-3" x1="0.864" y1="10.839" x2="-0.499" y2="9.074" gradientUnits="objectBoundingBox">
      <stop offset="0" stop-color="#ff3a44"/>
      <stop offset="1" stop-color="#c31162"/>
    </linearGradient>
    <linearGradient id="linear-gradient-4" x1="-0.186" y1="13.614" x2="0.423" y2="12.822" gradientUnits="objectBoundingBox">
      <stop offset="0" stop-color="#32a071"/>
      <stop offset="0.068" stop-color="#2da771"/>
      <stop offset="0.476" stop-color="#15cf74"/>
      <stop offset="0.801" stop-color="#06e775"/>
      <stop offset="1" stop-color="#00f076"/>
    </linearGradient>
  </defs>
  <g id="google_play" transform="translate(4324 2222)">
    <g id="Group_594" data-name="Group 594" transform="translate(770 1145.058)">
      <path id="Path_732" data-name="Path 732" d="M168.017,57.883H6.462C2.843,57.883,0,54.7,0,50.648V7.235C0,3.184,2.843,0,6.462,0H168.017c3.619,0,6.462,3.184,6.462,7.235V50.648C174.479,54.7,171.636,57.883,168.017,57.883Z"/>
    </g>
    <g id="Group_596" data-name="Group 596" transform="translate(770 1145.058)">
      <g id="Group_595" data-name="Group 595">
        <path id="Path_733" data-name="Path 733" class="cls-1" d="M168.017,1.158c2.973,0,5.428,2.749,5.428,6.078V50.648c0,3.328-2.456,6.078-5.428,6.078H6.462c-2.973,0-5.428-2.749-5.428-6.078V7.235c0-3.328,2.456-6.078,5.428-6.078H168.017m0-1.158H6.462C2.843,0,0,3.328,0,7.235V50.648c0,4.052,2.843,7.235,6.462,7.235H168.017c3.619,0,6.462-3.184,6.462-7.235V7.235c0-3.907-2.843-7.235-6.462-7.235Z"/>
      </g>
    </g>
    <g id="Group_597" data-name="Group 597" transform="translate(823.507 1157.328)">
      <path id="Path_734" data-name="Path 734" class="cls-2" d="M49.155,11.165a3.52,3.52,0,0,1-.9,2.585,4.007,4.007,0,0,1-6.85-2.843A3.972,3.972,0,0,1,45.407,6.9a3.441,3.441,0,0,1,1.551.388,2.814,2.814,0,0,1,1.163.9l-.646.646a2.41,2.41,0,0,0-2.068-.9,2.572,2.572,0,0,0-2.068.9,2.662,2.662,0,0,0-.9,2.2,2.662,2.662,0,0,0,.9,2.2,3.328,3.328,0,0,0,2.068.9,2.835,2.835,0,0,0,2.2-.9,2.14,2.14,0,0,0,.646-1.551H45.407V10.648h3.748C49.155,10.777,49.155,11.036,49.155,11.165Z" transform="translate(-41.4 -6.9)"/>
      <path id="Path_735" data-name="Path 735" class="cls-2" d="M53.024,7.9h-3.49V10.36h3.231v.9H49.534v2.456h3.49v1.034H48.5V7h4.524Z" transform="translate(-39.324 -6.871)"/>
      <path id="Path_736" data-name="Path 736" class="cls-2" d="M56.031,14.755H55V7.9H52.8V7h5.428v.9h-2.2Z" transform="translate(-38.066 -6.871)"/>
      <path id="Path_737" data-name="Path 737" class="cls-2" d="M59.9,14.755V7h1.034v7.755Z" transform="translate(-35.99 -6.871)"/>
      <path id="Path_738" data-name="Path 738" class="cls-2" d="M64.831,14.755H63.8V7.9H61.6V7h5.3v.9H64.7v6.85Z" transform="translate(-35.493 -6.871)"/>
      <path id="Path_739" data-name="Path 739" class="cls-2" d="M75.15,13.75a4.007,4.007,0,0,1-6.85-2.843,4.007,4.007,0,1,1,8.013,0A3.8,3.8,0,0,1,75.15,13.75ZM70.239,13.1a3.05,3.05,0,0,0,2.068.9,2.572,2.572,0,0,0,2.068-.9,3.118,3.118,0,0,0,.9-2.2,2.662,2.662,0,0,0-.9-2.2,3.05,3.05,0,0,0-2.068-.9,2.572,2.572,0,0,0-2.068.9,3.118,3.118,0,0,0-.9,2.2A2.662,2.662,0,0,0,70.239,13.1Z" transform="translate(-33.533 -6.9)"/>
      <path id="Path_740" data-name="Path 740" class="cls-2" d="M75.6,14.755V7h1.163l3.748,6.074h0V7h1.034v7.755H80.511L76.5,8.422h0v6.333Z" transform="translate(-31.399 -6.871)"/>
    </g>
    <path id="Path_741" data-name="Path 741" class="cls-3" d="M76,23.174a5.437,5.437,0,0,0-5.557,5.557A5.516,5.516,0,0,0,76,34.289a5.437,5.437,0,0,0,5.557-5.557A5.362,5.362,0,0,0,76,23.174Zm0,8.789a3.208,3.208,0,0,1-3.1-3.36,3.208,3.208,0,0,1,3.1-3.36,3.131,3.131,0,0,1,3.1,3.36A3.208,3.208,0,0,1,76,31.963Zm-12.02-8.789a5.437,5.437,0,0,0-5.557,5.557,5.516,5.516,0,0,0,5.557,5.557,5.437,5.437,0,0,0,5.557-5.557A5.362,5.362,0,0,0,63.976,23.174Zm0,8.789a3.208,3.208,0,0,1-3.1-3.36,3.208,3.208,0,0,1,3.1-3.36,3.131,3.131,0,0,1,3.1,3.36A3.208,3.208,0,0,1,63.976,31.963ZM49.63,24.855v2.326h5.557A4.887,4.887,0,0,1,53.9,30.154a5.721,5.721,0,0,1-4.265,1.68,6.017,6.017,0,0,1-6.074-6.2,6.1,6.1,0,0,1,6.074-6.2,6.408,6.408,0,0,1,4.265,1.68l1.68-1.68A8.282,8.282,0,0,0,49.759,17.1,8.718,8.718,0,0,0,41.1,25.63a8.718,8.718,0,0,0,8.659,8.53A7.438,7.438,0,0,0,55.7,31.7a7.78,7.78,0,0,0,2.068-5.428,4.846,4.846,0,0,0-.129-1.422Zm58.677,1.809a5.022,5.022,0,0,0-4.653-3.49,5.205,5.205,0,0,0-5.17,5.557,5.409,5.409,0,0,0,5.428,5.557,5.3,5.3,0,0,0,4.524-2.456l-1.809-1.292a3.15,3.15,0,0,1-2.714,1.551,2.8,2.8,0,0,1-2.714-1.68l7.367-3.1Zm-7.5,1.809a3.14,3.14,0,0,1,2.843-3.231,2.286,2.286,0,0,1,2.068,1.163Zm-6.074,5.3h2.456V17.617H94.736Zm-3.877-9.435h0a4.255,4.255,0,0,0-2.973-1.292,5.553,5.553,0,0,0-5.3,5.557,5.352,5.352,0,0,0,5.3,5.428,3.711,3.711,0,0,0,2.843-1.292h.129v.775c0,2.068-1.163,3.231-2.973,3.231a2.871,2.871,0,0,1-2.714-1.939l-2.068.9a5.332,5.332,0,0,0,4.911,3.231c2.843,0,5.17-1.68,5.17-5.687V23.433H90.859v.9Zm-2.843,7.625a3.208,3.208,0,0,1-3.1-3.36,3.208,3.208,0,0,1,3.1-3.36,3.109,3.109,0,0,1,2.973,3.36A3.109,3.109,0,0,1,88.015,31.963Zm31.535-14.346h-5.816V33.772h2.456V27.7h3.36a5.047,5.047,0,1,0,0-10.081Zm.129,7.755h-3.49V19.814h3.49a2.839,2.839,0,0,1,2.843,2.714A2.958,2.958,0,0,1,119.68,25.372Zm14.863-2.326a4.344,4.344,0,0,0-4.265,2.456l2.2.9a2.283,2.283,0,0,1,2.2-1.163,2.429,2.429,0,0,1,2.585,2.068v.129a5.126,5.126,0,0,0-2.456-.646c-2.326,0-4.653,1.292-4.653,3.619a3.786,3.786,0,0,0,4.007,3.619,3.637,3.637,0,0,0,3.1-1.551h.129v1.292h2.326v-6.2A4.891,4.891,0,0,0,134.543,23.045Zm-.258,8.918c-.775,0-1.939-.388-1.939-1.422,0-1.292,1.422-1.68,2.585-1.68a5,5,0,0,1,2.2.517A3.01,3.01,0,0,1,134.285,31.963Zm13.571-8.53-2.714,6.979h-.129l-2.843-6.979h-2.585l4.265,9.823-2.456,5.428h2.456l6.591-15.251ZM126.142,33.772H128.6V17.617h-2.456Z" transform="translate(782.019 1153.411)"/>
    <g id="Group_599" data-name="Group 599" transform="translate(782.924 1157.648)">
      <path id="Path_742" data-name="Path 742" class="cls-4" d="M10.517,7.5A2.527,2.527,0,0,0,10,9.309V37.872a2.557,2.557,0,0,0,.646,1.809l.129.129L26.8,23.785v-.258L10.517,7.5Z" transform="translate(-10 -7.044)"/>
      <path id="Path_743" data-name="Path 743" class="cls-5" d="M28.2,26.786l-5.3-5.3V21.1l5.3-5.3.129.129,6.333,3.619c1.809,1.034,1.809,2.714,0,3.748L28.2,26.786Z" transform="translate(-6.228 -4.617)"/>
      <path id="Path_744" data-name="Path 744" class="cls-6" d="M31.984,25.428,26.555,20,10.4,36.155c.646.646,1.551.646,2.714.129l18.87-10.856" transform="translate(-9.883 -3.389)"/>
      <path id="Path_745" data-name="Path 745" class="cls-7" d="M31.984,18.323,13.114,7.6a2.1,2.1,0,0,0-2.714.129L26.555,23.752Z" transform="translate(-9.883 -7.14)"/>
      <g id="Group_598" data-name="Group 598" transform="translate(0 21.91)">
        <path id="Path_746" data-name="Path 746" class="cls-8" d="M31.854,24.1,13.114,34.7a2.114,2.114,0,0,1-2.585,0h0l-.129.129h0l.129.129h0a2.114,2.114,0,0,0,2.585,0L31.854,24.1Z" transform="translate(-9.883 -24.1)"/>
        <path id="Path_747" data-name="Path 747" class="cls-9" d="M10.517,32.709A2.527,2.527,0,0,1,10,30.9v.129a2.557,2.557,0,0,0,.646,1.809v-.129Z" transform="translate(-10 -22.111)"/>
      </g>
      <path id="Path_748" data-name="Path 748" class="cls-9" d="M33.462,21.68,27,25.3l.129.129,6.333-3.619A2.148,2.148,0,0,0,34.755,20h0C34.755,20.646,34.238,21.163,33.462,21.68Z" transform="translate(-5.029 -3.389)"/>
      <path id="Path_749" data-name="Path 749" class="cls-10" d="M13.231,7.732l25.2,14.346c.775.517,1.292,1.034,1.292,1.68h0a2.148,2.148,0,0,0-1.292-1.809L13.231,7.6C11.422,6.569,10,7.345,10,9.413v.129C10,7.6,11.422,6.7,13.231,7.732Z" transform="translate(-10 -7.147)"/>
    </g>
  </g>
</svg>
